<svg width="100" height="35" viewBox="0 0 100 35" fill="none" xmlns="http://www.w3.org/2000/svg">
<path d="M18.8657 0C17.6357 0.0234375 16.7516 0.24384 16.1661 0.634465L8.16116 4.55168L3.70346 10.0741C2.76645 11.3929 3.43356 13.9485 6.36613 12.3106L9.57109 8.45312C13.6474 5.24467 21.9695 6.72296 18.0232 13.155C16.0846 16.8796 16.9969 18.6981 19.4864 19.4613L20.6244 15.9772C22.5976 11.9338 26.2683 11.2063 26.1185 7.94652L34.9591 8.52674L60.0354 16.8338L18.8657 0ZM14.4093 7.76277C12.9749 7.74023 11.568 8.28095 10.5435 9.06798L7.32671 12.9239C8.20936 13.5629 9.09092 13.2214 9.97348 12.4459C11.0137 12.9262 11.8161 12.1813 12.4752 10.6958C12.7485 9.68254 13.1517 8.96529 14.4093 7.76277ZM11.722 14.3977C11.5729 14.4019 11.4263 14.4335 11.2909 14.4905L0.649034 18.9609C0.0901023 19.196 -0.155337 19.8024 0.102543 20.3124L7.12791 34.2157C7.38587 34.7252 8.051 34.9503 8.61092 34.7141L19.2515 30.2441C19.8115 30.0085 20.057 29.4029 19.7991 28.892L12.7728 14.9896C12.5796 14.6067 12.157 14.3854 11.722 14.3977Z" fill="#294CAC"/>
<path d="M39.9562 16.5385V24.9077C39.9562 25.0718 39.9652 25.2769 39.9832 25.5231C40.0012 25.7692 40.0462 26.0154 40.1182 26.2615C40.2082 26.4913 40.3342 26.6964 40.4962 26.8769C40.6581 27.041 40.8831 27.1231 41.1711 27.1231C42.053 27.1231 42.701 26.2287 43.1149 24.44H44.1138C43.9158 25.4738 43.6639 26.2944 43.3579 26.9015C43.0519 27.4923 42.728 27.9436 42.386 28.2554C42.044 28.5672 41.6931 28.7641 41.3331 28.8462C40.9731 28.9446 40.6491 28.9938 40.3612 28.9938C39.9472 28.9938 39.5873 28.9282 39.2813 28.7969C38.9933 28.6656 38.7413 28.4933 38.5254 28.28C38.3274 28.0667 38.1654 27.8205 38.0394 27.5415C37.9134 27.2626 37.8144 26.9754 37.7424 26.68C37.4005 27.4841 36.9505 28.0749 36.3926 28.4523C35.8346 28.8133 35.2497 28.9938 34.6377 28.9938C34.1158 28.9938 33.6208 28.9282 33.1529 28.7969C32.6849 28.6656 32.2799 28.4523 31.938 28.1569C31.596 27.8451 31.326 27.4513 31.1281 26.9754C30.9301 26.4831 30.8311 25.8841 30.8311 25.1785V17.4H27.5644V30.8154C27.5644 31.6851 27.4654 32.3908 27.2674 32.9323C27.0874 33.4738 26.8445 33.9005 26.5385 34.2123C26.2325 34.5241 25.8725 34.7292 25.4586 34.8277C25.0626 34.9426 24.6397 35 24.1897 35C23.2178 35 22.5069 34.7949 22.0569 34.3846C21.589 33.9744 21.355 33.3836 21.355 32.6123C21.355 32.2021 21.463 31.8246 21.6789 31.48C21.8769 31.1354 22.1469 30.8154 22.4889 30.52C22.8128 30.241 23.1818 29.9867 23.5958 29.7569C24.0097 29.5436 24.4327 29.3549 24.8646 29.1908V14.6677C24.8646 13.24 25.2336 12.1733 25.9715 11.4677C26.7095 10.7456 27.6544 10.3846 28.8063 10.3846C29.3462 10.3846 29.8412 10.4585 30.2911 10.6062C30.7411 10.7538 31.137 10.9836 31.479 11.2954C31.821 11.6072 32.082 11.9928 32.2619 12.4523C32.4599 12.9118 32.5589 13.4533 32.5589 14.0769H31.506C31.398 13.4205 31.2 12.9036 30.9121 12.5262C30.6421 12.1487 30.1831 11.96 29.5352 11.96C29.1032 11.96 28.7613 12.0503 28.5093 12.2308C28.2573 12.3949 28.0593 12.6246 27.9154 12.92C27.7714 13.2154 27.6724 13.5764 27.6184 14.0031C27.5824 14.4133 27.5644 14.8646 27.5644 15.3569V16.5385H33.5308V24.9077C33.5308 25.7118 33.6838 26.2862 33.9898 26.6308C34.2957 26.959 34.6827 27.1231 35.1507 27.1231C35.4026 27.1231 35.6546 27.0656 35.9066 26.9508C36.1586 26.8195 36.3836 26.639 36.5815 26.4092C36.7795 26.1795 36.9415 25.9005 37.0675 25.5723C37.1935 25.2441 37.2565 24.8667 37.2565 24.44V16.5385H39.9562ZM23.6498 33.72C24.1717 33.72 24.5047 33.4656 24.6487 32.9569C24.7927 32.4482 24.8646 31.7508 24.8646 30.8646V30.1015C24.0547 30.4626 23.4428 30.8564 23.0288 31.2831C22.6149 31.7097 22.4079 32.1282 22.4079 32.5385C22.4079 32.8667 22.5249 33.1456 22.7588 33.3754C22.9928 33.6051 23.2898 33.72 23.6498 33.72Z" fill="#012875"/>
<path d="M45.7824 16.5385V18.6062C45.9984 18.3108 46.2054 18.0318 46.4033 17.7692C46.6193 17.5067 46.8533 17.2769 47.1053 17.08C47.3572 16.8831 47.6362 16.7272 47.9422 16.6123C48.2482 16.481 48.5901 16.4154 48.9681 16.4154C49.58 16.4154 50.03 16.5631 50.318 16.8585C50.6059 17.1374 50.7499 17.4821 50.7499 17.8923C50.7499 18.1385 50.7049 18.3436 50.6149 18.5077C50.5249 18.6718 50.417 18.8031 50.291 18.9015C50.165 19 50.03 19.0738 49.886 19.1231C49.742 19.1559 49.616 19.1723 49.508 19.1723C49.3461 19.1723 49.2111 19.1395 49.1031 19.0738C49.0131 19.0082 48.9141 18.9426 48.8061 18.8769C48.7161 18.7949 48.6081 18.721 48.4821 18.6554C48.3561 18.5897 48.1942 18.5569 47.9962 18.5569C47.5822 18.5569 47.1863 18.6882 46.8083 18.9508C46.4303 19.2133 46.0884 19.4923 45.7824 19.7877V28.8462H43.0826V16.5385H45.7824Z" fill="#012875"/>
<path d="M54.8518 16.5385V18.4092C55.1218 17.9662 55.3918 17.6133 55.6618 17.3508C55.9497 17.0718 56.2377 16.8667 56.5257 16.7354C56.8137 16.6041 57.0836 16.5221 57.3356 16.4892C57.6056 16.44 57.8576 16.4154 58.0915 16.4154C58.9015 16.4154 59.5494 16.5549 60.0354 16.8338C60.5393 17.1128 60.9173 17.4738 61.1692 17.9169C61.4212 18.3436 61.5832 18.8195 61.6552 19.3446C61.7452 19.8533 61.7902 20.3456 61.7902 20.8215C61.7902 21.1169 61.7812 21.4451 61.7632 21.8062C61.7452 22.1508 61.7272 22.5118 61.7092 22.8892C61.6912 23.2503 61.6732 23.6195 61.6552 23.9969C61.6372 24.3579 61.6282 24.6944 61.6282 25.0062C61.6282 25.1374 61.6372 25.3262 61.6552 25.5723C61.6732 25.8021 61.7182 26.0318 61.7902 26.2615C61.8622 26.4913 61.9792 26.6964 62.1411 26.8769C62.3031 27.041 62.5371 27.1231 62.8431 27.1231C63.257 27.1231 63.626 26.9097 63.95 26.4831C64.2919 26.0564 64.5709 25.3754 64.7869 24.44H65.7858C65.5878 25.4738 65.3358 26.2944 65.0299 26.9015C64.7239 27.4923 64.3999 27.9436 64.058 28.2554C63.716 28.5672 63.374 28.7641 63.0321 28.8462C62.6901 28.9446 62.3751 28.9938 62.0872 28.9938C61.5112 28.9938 61.0253 28.8954 60.6293 28.6985C60.2333 28.4851 59.9094 28.2062 59.6574 27.8615C59.4054 27.5169 59.2164 27.1149 59.0904 26.6554C58.9824 26.1959 58.9285 25.72 58.9285 25.2277C58.9285 25.08 58.9285 24.8092 58.9285 24.4154C58.9465 24.0051 58.9555 23.5703 58.9555 23.1108C58.9735 22.6513 58.9825 22.2164 58.9825 21.8062C59.0005 21.3959 59.0094 21.1087 59.0094 20.9446C59.0094 20.4195 58.9645 19.9846 58.8745 19.64C58.7845 19.2954 58.6585 19.0246 58.4965 18.8277C58.3345 18.6308 58.1455 18.4913 57.9296 18.4092C57.7316 18.3272 57.5156 18.2862 57.2816 18.2862C56.7237 18.2862 56.2377 18.4913 55.8237 18.9015C55.4278 19.3118 55.1038 20.001 54.8518 20.9692V28.8462H52.1521V16.5385H54.8518Z" fill="#012875"/>
<path d="M74.7165 11.6154V24.9077C74.7165 25.0718 74.7255 25.2769 74.7435 25.5231C74.7615 25.7692 74.8065 26.0154 74.8785 26.2615C74.9685 26.4913 75.0944 26.6964 75.2564 26.8769C75.4184 27.041 75.6434 27.1231 75.9314 27.1231C76.8133 27.1231 77.4612 26.2287 77.8752 24.44H78.8741C78.6761 25.4738 78.4241 26.2944 78.1181 26.9015C77.8122 27.4923 77.4882 27.9436 77.1462 28.2554C76.8043 28.5672 76.4533 28.7641 76.0933 28.8462C75.7334 28.9446 75.4094 28.9938 75.1214 28.9938C74.7075 28.9938 74.3475 28.9282 74.0415 28.7969C73.7536 28.6656 73.5016 28.4933 73.2856 28.28C73.0876 28.0667 72.9256 27.8205 72.7997 27.5415C72.6737 27.2626 72.5747 26.9672 72.5027 26.6554C72.2327 27.2954 71.7918 27.8451 71.1798 28.3046C70.5859 28.7641 69.8569 28.9938 68.993 28.9938C68.4531 28.9938 67.9041 28.8954 67.3462 28.6985C66.8062 28.5015 66.3113 28.1815 65.8613 27.7385C65.4294 27.279 65.0694 26.6964 64.7814 25.9908C64.5114 25.2687 64.3765 24.3908 64.3765 23.3569C64.3765 22.6021 64.4664 21.8144 64.6464 20.9938C64.8444 20.1733 65.1504 19.4267 65.5643 18.7538C65.9783 18.081 66.5092 17.5231 67.1572 17.08C67.8051 16.6369 68.5881 16.4154 69.506 16.4154C69.722 16.4154 69.9469 16.44 70.1809 16.4892C70.4329 16.5221 70.6669 16.5877 70.8828 16.6862C71.1168 16.7846 71.3328 16.9241 71.5308 17.1046C71.7288 17.2687 71.8907 17.4738 72.0167 17.72V11.96L74.7165 11.6154ZM69.668 27.1231C69.9379 27.1231 70.2079 27.0574 70.4779 26.9262C70.7658 26.7785 71.0178 26.5897 71.2338 26.36C71.4678 26.1138 71.6568 25.8267 71.8008 25.4985C71.9447 25.1703 72.0167 24.8174 72.0167 24.44V18.8277C71.8907 18.5651 71.6928 18.3272 71.4228 18.1138C71.1708 17.8841 70.8378 17.7692 70.4239 17.7692C69.8479 17.7692 69.353 17.9497 68.939 18.3108C68.5251 18.6554 68.1921 19.0985 67.9401 19.64C67.6881 20.1651 67.4992 20.7477 67.3732 21.3877C67.2652 22.0113 67.2112 22.6103 67.2112 23.1846C67.2112 24.5959 67.4182 25.6051 67.8321 26.2123C68.2641 26.8195 68.876 27.1231 69.668 27.1231Z" fill="#012875"/>
<path d="M86.3079 19.6154C86.3079 20.7641 85.7859 21.7241 84.742 22.4954C83.7161 23.2667 82.2853 23.7426 80.4494 23.9231C80.5214 24.5795 80.6474 25.1128 80.8274 25.5231C81.0254 25.9333 81.2593 26.2615 81.5293 26.5077C81.7993 26.7374 82.1053 26.9015 82.4472 27C82.8072 27.0821 83.1762 27.1231 83.5541 27.1231C84.418 27.1231 85.228 26.9179 85.9839 26.5077C86.7398 26.0974 87.3518 25.4082 87.8197 24.44H88.6836C88.4497 25.0472 88.1257 25.6297 87.7117 26.1877C87.2978 26.7292 86.8118 27.2133 86.2539 27.64C85.6959 28.0503 85.093 28.3785 84.445 28.6246C83.7971 28.8708 83.1312 28.9938 82.4472 28.9938C81.8173 28.9938 81.2054 28.8954 80.6114 28.6985C80.0355 28.5015 79.5225 28.1815 79.0726 27.7385C78.6226 27.279 78.2536 26.6882 77.9657 25.9662C77.6957 25.2441 77.5607 24.3579 77.5607 23.3077C77.5607 22.6185 77.6417 21.8718 77.8037 21.0677C77.9837 20.2636 78.2716 19.5169 78.6676 18.8277C79.0816 18.1385 79.6125 17.5641 80.2604 17.1046C80.9264 16.6451 81.7453 16.4154 82.7172 16.4154C83.1672 16.4154 83.5991 16.4646 84.0131 16.5631C84.445 16.6451 84.832 16.8092 85.174 17.0554C85.5159 17.2851 85.7859 17.6051 85.9839 18.0154C86.1999 18.4256 86.3079 18.959 86.3079 19.6154ZM80.4224 22.9631C81.7003 22.7826 82.7082 22.3723 83.4461 21.7323C84.2021 21.0923 84.58 20.3046 84.58 19.3692C84.58 18.7456 84.463 18.3026 84.2291 18.04C83.9951 17.761 83.6621 17.6215 83.2302 17.6215C82.7622 17.6215 82.3482 17.7856 81.9883 18.1138C81.6463 18.4421 81.3583 18.8687 81.1244 19.3938C80.8904 19.9026 80.7104 20.4769 80.5844 21.1169C80.4764 21.7405 80.4224 22.3559 80.4224 22.9631Z" fill="#012875"/>
<path d="M97.7592 11.6154V24.9077C97.7592 25.1046 97.7682 25.3344 97.7862 25.5969C97.8042 25.8431 97.8492 26.081 97.9212 26.3108C98.0112 26.5405 98.1372 26.7374 98.2992 26.9015C98.4791 27.0492 98.7311 27.1231 99.0551 27.1231C99.1991 27.1231 99.3521 27.1067 99.514 27.0738C99.694 27.041 99.838 27.0082 99.946 26.9754C99.964 27.0574 99.973 27.1313 99.973 27.1969C99.991 27.2626 100 27.3364 100 27.4185C100 27.9108 99.793 28.2964 99.3791 28.5754C98.9651 28.8544 98.4971 28.9938 97.9752 28.9938C97.4172 28.9938 96.9133 28.8215 96.4633 28.4769C96.0134 28.1159 95.7074 27.5169 95.5454 26.68C95.2755 27.32 94.8345 27.8697 94.2225 28.3292C93.6106 28.7723 92.8727 28.9938 92.0088 28.9938C91.4688 28.9938 90.9199 28.8954 90.3619 28.6985C89.822 28.4851 89.336 28.1569 88.9041 27.7138C88.4721 27.2708 88.1121 26.6964 87.8242 25.9908C87.5542 25.2851 87.4192 24.4318 87.4192 23.4308C87.4192 22.6595 87.5092 21.8636 87.6892 21.0431C87.8872 20.2062 88.1841 19.4513 88.5801 18.7785C88.994 18.0892 89.525 17.5231 90.1729 17.08C90.8209 16.6369 91.5948 16.4154 92.4947 16.4154C92.9627 16.4154 93.4396 16.5056 93.9256 16.6862C94.4295 16.8667 94.8075 17.2113 95.0595 17.72V11.96L97.7592 11.6154ZM92.5757 27.1231C92.9177 27.1231 93.2416 27.0492 93.5476 26.9015C93.8536 26.7538 94.1146 26.5569 94.3305 26.3108C94.5645 26.0646 94.7445 25.7856 94.8705 25.4738C94.9965 25.1456 95.0595 24.801 95.0595 24.44V18.8277C94.9335 18.5487 94.7445 18.3026 94.4925 18.0892C94.2405 17.8759 93.8806 17.7692 93.4126 17.7692C92.8367 17.7692 92.3507 17.9497 91.9548 18.3108C91.5588 18.6554 91.2348 19.0985 90.9829 19.64C90.7309 20.1815 90.5419 20.7887 90.4159 21.4615C90.3079 22.1179 90.2539 22.7497 90.2539 23.3569C90.2539 24.6862 90.4789 25.6462 90.9289 26.2369C91.3788 26.8277 91.9278 27.1231 92.5757 27.1231Z" fill="#012875"/>
</svg>
